<?xml version="1.0" encoding="utf-8"?>
<!-- Generator: Adobe Illustrator 24.0.2, SVG Export Plug-In . SVG Version: 6.00 Build 0)  -->
<svg version="1.1" id="图层_1" xmlns="http://www.w3.org/2000/svg" xmlns:xlink="http://www.w3.org/1999/xlink" x="0px" y="0px"
	 viewBox="0 0 1558.69 195.63" style="enable-background:new 0 0 1558.69 195.63;" xml:space="preserve">
<style type="text/css">
	.st0{fill:#EA5519;}
</style>
<g>
	<path class="st0" d="M1109.09,140.46v26.98h-28.94v-41.55c0-3.81,1.38-7.15,4.13-10.04l79.14-81.13c2.89-2.89,6.36-4.33,10.43-4.33
		h36.22c3.94,0,7.31,1.41,10.14,4.23c2.82,2.82,4.23,6.27,4.23,10.34v122.48h-28.94v-26.98H1109.09z M1179.96,59.34l-50.99,52.18
		h66.54V59.34H1179.96z"/>
	<path class="st0" d="M1309.88,34.72l54.34,82.7v-87h28.94v137.02h-28.94v-0.64l-70.87-107.46h-15.55v108.1h-28.94V44.96
		c0-4.07,1.41-7.51,4.23-10.34c2.82-2.82,6.27-4.23,10.34-4.23h36.03C1303.52,30.39,1306.99,31.84,1309.88,34.72z"/>
	<g>
		<path class="st0" d="M286.46,73.22l18.58-13.89h92.98V30.39h-97.91c-3.15,0-6.04,0.98-8.66,2.95l-28.03,20.98
			c-3.94,2.89-5.91,6.76-5.91,11.62v101.5h28.94v-53.95h87.62V84.54h-87.62V73.22z"/>
		<path class="st0" d="M521.66,30.39h-36.22c-4.07,0-7.55,1.45-10.43,4.33l-79.14,81.13c-2.76,2.89-4.13,6.24-4.13,10.04v41.55
			h28.94v-26.98h86.43v26.98h28.94V44.96c0-4.07-1.41-7.51-4.23-10.34C528.98,31.8,525.6,30.39,521.66,30.39z M507.1,111.52h-66.54
			l50.99-52.18h15.55V111.52z"/>
		<path class="st0" d="M676.8,117.42l-54.34-82.7c-2.89-2.89-6.37-4.33-10.43-4.33H576c-4.07,0-7.52,1.41-10.34,4.23
			c-2.82,2.82-4.23,6.27-4.23,10.34v122.48h28.94V59.34h15.55L676.8,166.8v0.64h28.94V30.42H676.8V117.42z"/>
		<path class="st0" d="M784.35,57.96h88.98V28.81h-93.91c-3.15,0-6.04,0.98-8.66,2.95l-36.03,26.98c-3.94,2.89-5.91,6.76-5.91,11.62
			v26.98c0,4.07,1.41,7.52,4.23,10.34c2.82,2.82,6.27,4.23,10.34,4.23h72.05l28.74,20.08v4.92H728.64v28.95h129.93
			c4.07,0,7.51-1.41,10.34-4.23c2.82-2.82,4.23-6.2,4.23-10.14v-26.98c0-5.12-2.1-9.12-6.3-12.01l-38.39-26.98
			c-2.49-1.7-5.25-2.56-8.27-2.56h-62.41v-5.32L784.35,57.96z"/>
	</g>
	<path class="st0" d="M924.44,28.42h28.94v108.1h107.46v28.95H939.01c-4.07,0-7.52-1.41-10.34-4.23c-2.82-2.82-4.23-6.2-4.23-10.14
		V28.42z"/>
	<path class="st0" d="M1552.69,58.08l-36.33-26.83c-2.64-1.96-5.52-2.93-8.68-2.92l-79.14,0.32c-4.07,0.02-7.51,1.44-10.32,4.28
		c-2.81,2.84-4.21,6.29-4.19,10.35l0.45,109.88c0.02,4.07,1.44,7.51,4.27,10.32c2.83,2.81,6.28,4.21,10.35,4.19l84.14-0.34
		c3.15-0.01,6.03-1.01,8.65-2.99l31.13-22.1c3.79-2.9,5.68-6.79,5.66-11.64l-0.25-60.92C1558.43,64.82,1556.5,60.95,1552.69,58.08z
		 M1508.2,138.4l-64.85,0.26l-0.33-81.13l59.85-0.24l26.66,19.78l0.19,46.35L1508.2,138.4z"/>
	<path class="st0" d="M125.84,0.03c16.99,0,33.98-0.01,50.98,0c12.33-0.64,23.14,9.55,22.47,22.05c-0.01,27.74,0,55.47,0.01,83.21
		c0.73,15.75,0.56,31.55-10.93,43.85c-8.1,9.36-15.49,19.33-23.55,28.73c-6.25,7.28-14.41,12.05-23.52,14.91
		c-6.35,1.99-12.96,2.63-19.66,2.6c-17.41-0.06-34.82-0.14-52.22,0.13c-12.42,0.19-24.82,0.36-37.16-1.17
		c-7.9-0.98-15.56-2.83-21.99-7.94c-4.77-3.79-7.29-8.88-8.74-14.7c-3.1-31.22-0.31-62.95-1.24-94.35
		C0.25,65.63,4.1,55.41,11.57,46.42c7.96-9.59,15.83-19.26,23.66-28.97C57.67-7.64,95.93,2.42,125.84,0.29
		C125.84,0.2,125.84,0.11,125.84,0.03z M127.1,27.25c-43.32,0.23-36.25-5.35-70.96,22.81c-2.93,2.81-3.42,6.51-3.4,10.35
		c0.1,21.99,0.19,43.97,0.27,65.96c0.01,2.92-0.59,3.51-3.48,3.57c-7.98-0.72-14.8,4.29-20.55,9.15
		c-4.49,5.81-1.14,14.91-2.12,21.89c-0.91,14.74,21.78,7.2,30.96,8.73c6.58-0.24,17.43-6.01,19.61-12.46
		c2.17-16.73,0.38-33.8,0.87-50.65c-0.01-5.82-0.01-5.82,5.84-5.84c19.41-0.08,38.81-0.15,58.22-0.24c3.58-0.02,3.7-0.14,3.7-3.61
		c0-5.91-0.01-11.83-0.03-17.74c-0.01-3.61-0.23-3.84-3.82-3.84c-18.91,0.04-37.81,0.13-56.72,0.13c-8.18,0-7.24,1.22-7.33-7.56
		c-0.02-2.27,0.87-3.86,2.81-5.18c6.28-3.67,10.89-10.7,18.86-10.43c21.4,0.16,42.81,0.03,64.22-0.01c3.29-0.01,3.33-0.05,3.33-3.37
		c0.01-6.16-0.13-12.33,0.03-18.49c0.07-2.6-0.86-3.24-3.31-3.22C151.75,27.3,139.42,27.25,127.1,27.25z"/>
</g>
</svg>
