<?xml version="1.0" encoding="utf-8"?>
<!-- Generator: Adobe Illustrator 24.0.2, SVG Export Plug-In . SVG Version: 6.00 Build 0)  -->
<svg version="1.1" id="图层_1" xmlns="http://www.w3.org/2000/svg" xmlns:xlink="http://www.w3.org/1999/xlink" x="0px" y="0px"
	 viewBox="0 0 163.88 168.05" style="enable-background:new 0 0 163.88 168.05;" xml:space="preserve">
<style type="text/css">
	.st0{fill:#EA5519;}
</style>
<path class="st0" d="M147.44,0H62.3c-3.55,0-10.58,1.33-13.85,4.33L8.25,37.37C3.84,40.85,0,50.29,0,55.89v91.4
	c0,9.81,10.27,20.76,19.35,20.76h85c3.54,0,10.89-1.91,14.7-4.86l37.33-30.91c4.9-4.07,7.49-12.52,7.49-18.13v-96.4
	C163.88,7.95,156.52,0,147.44,0z M139.33,42.74H82.1l-13.31,9.95v8.82h53.39v20.74H68.79v48.53l-0.01,0.01v7.61
	c0,2.14-1.05,4.16-2.84,5.44l-5.75,4.13c-1.22,0.87-2.7,1.35-4.22,1.35H32.7c-3.9,0-7.05-3.04-7.05-6.78V129.5
	c0-2.14,1.05-4.16,2.83-5.44l5.75-4.13c1.22-0.87,2.7-1.35,4.22-1.35h9.6V47.47c0-3.48,1.41-6.25,4.23-8.32l20.08-15.03
	c1.88-1.41,3.95-2.12,6.21-2.12h60.76V42.74z"/>
</svg>
