<?xml version="1.0" encoding="utf-8"?>
<!-- Generator: Adobe Illustrator 24.0.2, SVG Export Plug-In . SVG Version: 6.00 Build 0)  -->
<svg version="1.1" id="图层_1" xmlns="http://www.w3.org/2000/svg" xmlns:xlink="http://www.w3.org/1999/xlink" x="0px" y="0px"
	 viewBox="0 0 150.42 175.51" style="enable-background:new 0 0 150.42 175.51;" xml:space="preserve">
<style type="text/css">
	.st0{fill:#EA5519;}
</style>
<path class="st0" d="M76.03,27.93h74.39V0H71.28c-3.04,0-5.83,0.95-8.36,2.85L35.88,23.09c-3.8,2.79-5.7,6.52-5.7,11.21v99.84H17.25
	c-2.05,0-4.04,0.64-5.68,1.81l-7.75,5.56c-2.4,1.72-3.82,4.44-3.82,7.32v17.54c0,5.05,4.25,9.14,9.5,9.14h31.35
	c2.05,0,4.04-0.64,5.68-1.81l7.75-5.56c2.4-1.73,3.82-4.44,3.82-7.32v-10.25l0.01-0.01V81.14h69.21V53.21H58.11V41.33L76.03,27.93z"
	/>
</svg>
